Coordinates
version=1
nRows=16
nColumns=40
inDegrees=yes

Units are S.I. units (second, meters, Newtons, ...)
If the header above contains a line with 'inDegrees', this indicates whether rotational values are in degrees (yes) or radians (no).

endheader
time	pelvis_tilt	pelvis_list	pelvis_rotation	pelvis_tx	pelvis_ty	pelvis_tz	hip_flexion_r	hip_adduction_r	hip_rotation_r	knee_angle_r	knee_angle_r_beta	ankle_angle_r	subtalar_angle_r	mtp_angle_r	hip_flexion_l	hip_adduction_l	hip_rotation_l	knee_angle_l	knee_angle_l_beta	ankle_angle_l	subtalar_angle_l	mtp_angle_l	lumbar_extension	lumbar_bending	lumbar_rotation	arm_flex_r	arm_add_r	arm_rot_r	elbow_flex_r	pro_sup_r	wrist_flex_r	wrist_dev_r	arm_flex_l	arm_add_l	arm_rot_l	elbow_flex_l	pro_sup_l	wrist_flex_l	wrist_dev_l
      7.43500000	     -3.62099880	     28.60112442	    -88.15308680	      1.22288311	      0.64294215	      0.10837479	     91.76638522	     -9.57681293	     -5.09887835	     90.15316522	      1.57346956	     20.69460018	    -17.91796157	      0.00000000	     92.79753462	     -9.06423673	     -0.17959287	     92.62218959	      1.61656217	     24.69187324	    -10.63613713	      0.00000000	    -23.67119366	      7.37529605	     -1.75910145	     44.99992434	    -14.99999999	     44.99992434	     75.00017585	     45.00000026	      0.00000000	      0.00000000	     44.99992434	    -14.99999999	     44.99992434	     75.00017585	     45.00000026	      0.00000000	      0.00000000
      7.44000000	     -4.14065434	     28.46869492	    -87.67816225	      1.22394927	      0.64255451	      0.10847434	     91.52497952	     -9.92466433	     -5.65954768	     90.21135933	      1.57448524	     20.84404981	    -17.73979432	      0.00000000	     92.90735894	     -8.73483596	      0.34968562	     92.77301631	      1.61919459	     24.38304081	    -11.26386837	      0.00000000	    -23.86207040	      7.79972139	     -2.32697889	     44.99992434	    -14.99999999	     44.99992434	     75.00017585	     45.00000026	      0.00000000	      0.00000000	     44.99992434	    -14.99999999	     44.99992434	     75.00017585	     45.00000026	      0.00000000	      0.00000000
      7.44500000	     -3.57875351	     28.42561827	    -88.17307539	      1.22290096	      0.64178204	      0.10851491	     91.77470975	     -9.61838338	     -5.04079782	     90.46339571	      1.57888411	     20.83009793	    -17.88689293	      0.00000000	     92.77459359	     -9.08955290	     -0.21179447	     92.90777458	      1.62154657	     24.78832790	    -10.64120095	      0.00000000	    -23.94925001	      7.21415330	     -1.98042721	     44.99992434	    -14.99999999	     44.99992434	     75.00017585	     45.00000026	      0.00000000	      0.00000000	     44.99992434	    -14.99999999	     44.99992434	     75.00017585	     45.00000026	      0.00000000	      0.00000000
      7.45000000	     -3.46183315	     28.54255864	    -88.16808710	      1.22307602	      0.64048265	      0.10835380	     92.09729939	     -9.72213622	     -4.87800716	     90.69375252	      1.58290459	     20.86473653	    -17.80327678	      0.00000000	     93.00841890	     -8.97343623	     -0.28130959	     93.07484891	      1.62446256	     24.82223839	    -10.71853382	      0.00000000	    -23.76143958	      7.32983729	     -1.74942270	     44.99992434	    -14.99999999	     44.99992434	     75.00017585	     45.00000026	      0.00000000	      0.00000000	     44.99992434	    -14.99999999	     44.99992434	     75.00017585	     45.00000026	      0.00000000	      0.00000000
      7.45500000	     -3.45953157	     28.51066156	    -88.16151841	      1.22310114	      0.63974824	      0.10837564	     92.16301690	     -9.74284549	     -4.85405914	     90.84854986	      1.58560632	     20.93165579	    -17.78473004	      0.00000000	     93.07096873	     -8.96840636	     -0.26614702	     93.22152163	      1.62702249	     24.87746718	    -10.69285740	      0.00000000	    -23.80154709	      7.42018425	     -1.65143925	     44.99992434	    -14.99999999	     44.99992434	     75.00017585	     45.00000026	      0.00000000	      0.00000000	     44.99992434	    -14.99999999	     44.99992434	     75.00017585	     45.00000026	      0.00000000	      0.00000000
      7.46000000	     -3.88384233	     28.54228196	    -87.77612489	      1.22388018	      0.63879199	      0.10835997	     92.19004556	     -9.95464535	     -5.22526873	     90.97877044	      1.58787909	     20.94438059	    -18.09927456	      0.00000000	     93.36215259	     -8.71802242	      0.17050497	     93.41548661	      1.63040781	     24.77938531	    -10.90676129	      0.00000000	    -23.70225127	      7.70877993	     -2.19063550	     44.99992434	    -14.99999999	     44.99992434	     75.00017585	     45.00000026	      0.00000000	      0.00000000	     44.99992434	    -14.99999999	     44.99992434	     75.00017585	     45.00000026	      0.00000000	      0.00000000
      7.46500000	     -3.47527222	     28.48767883	    -88.13372983	      1.22320414	      0.63812383	      0.10836605	     92.35721364	     -9.79426036	     -4.82222048	     91.17219202	      1.59125494	     21.00831091	    -17.79193681	      0.00000000	     93.26177841	     -8.94523656	     -0.21161521	     93.52823277	      1.63237561	     24.99257453	    -10.66073451	      0.00000000	    -23.82932254	      7.33317615	     -1.93957028	     44.99992434	    -14.99999999	     44.99992434	     75.00017585	     45.00000026	      0.00000000	      0.00000000	     44.99992434	    -14.99999999	     44.99992434	     75.00017585	     45.00000026	      0.00000000	      0.00000000
      7.47000000	     -3.41789665	     28.43976889	    -88.15009285	      1.22320864	      0.63745876	      0.10841801	     92.41105202	     -9.82766588	     -4.75405222	     91.32355353	      1.59389669	     21.12505138	    -17.69716831	      0.00000000	     93.28178933	     -8.94127253	     -0.25417808	     93.65966889	      1.63466960	     25.04891658	    -10.61573968	      0.00000000	    -23.87557593	      7.41553692	     -1.81439269	     44.99992434	    -14.99999999	     44.99992434	     75.00017585	     45.00000026	      0.00000000	      0.00000000	     44.99992434	    -14.99999999	     44.99992434	     75.00017585	     45.00000026	      0.00000000	      0.00000000
      7.47500000	     -3.79599526	     28.43374472	    -87.93850352	      1.22342751	      0.63658815	      0.10846847	     92.41308324	     -9.84901143	     -5.09340383	     91.45829810	      1.59624843	     21.12292455	    -17.86131989	      0.00000000	     93.51817194	     -8.92734024	      0.12746046	     93.87485984	      1.63842539	     25.00955621	    -10.70065330	      0.00000000	    -23.85121421	      7.65077695	     -2.12640790	     44.99992434	    -14.99999999	     44.99992434	     75.00017585	     45.00000026	      0.00000000	      0.00000000	     44.99992434	    -14.99999999	     44.99992434	     75.00017585	     45.00000026	      0.00000000	      0.00000000
      7.48000000	     -3.43919874	     28.41920507	    -88.11359899	      1.22328408	      0.63576534	      0.10842964	     92.61909153	     -9.86656850	     -4.70489008	     91.67156297	      1.59997060	     21.21010020	    -17.75340273	      0.00000000	     93.48547110	     -8.92118837	     -0.19859073	     93.98255964	      1.64030511	     25.14709424	    -10.57053085	      0.00000000	    -23.87864355	      7.38613283	     -1.97560330	     44.99992434	    -14.99999999	     44.99992434	     75.00017585	     45.00000026	      0.00000000	      0.00000000	     44.99992434	    -14.99999999	     44.99992434	     75.00017585	     45.00000026	      0.00000000	      0.00000000
      7.48500000	     -3.37953974	     28.33464652	    -88.13417026	      1.22327339	      0.63518718	      0.10851538	     92.63683837	     -9.89328430	     -4.62824902	     91.83299672	      1.60278815	     21.29999526	    -17.66090677	      0.00000000	     93.46326873	     -8.92650455	     -0.25353427	     94.11800923	      1.64266915	     25.20985995	    -10.55965053	      0.00000000	    -23.99344445	      7.43853367	     -1.81784680	     44.99992434	    -14.99999999	     44.99992434	     75.00017585	     45.00000026	      0.00000000	      0.00000000	     44.99992434	    -14.99999999	     44.99992434	     75.00017585	     45.00000026	      0.00000000	      0.00000000
      7.49000000	     -3.44466309	     28.29339905	    -88.12702677	      1.22320292	      0.63450006	      0.10855275	     92.66796344	     -9.86108359	     -4.67167728	     91.96641823	      1.60511680	     21.35982775	    -17.68290300	      0.00000000	     93.53567020	     -8.97367080	     -0.17151240	     94.27196906	      1.64535625	     25.26104397	    -10.49848438	      0.00000000	    -24.04683679	      7.49088727	     -1.79835036	     44.99992434	    -14.99999999	     44.99992434	     75.00017585	     45.00000026	      0.00000000	      0.00000000	     44.99992434	    -14.99999999	     44.99992434	     75.00017585	     45.00000026	      0.00000000	      0.00000000
      7.49500000	     -3.71475951	     28.34867491	    -87.97348700	      1.22338654	      0.63347762	      0.10850635	     92.77832916	     -9.87676992	     -4.89459877	     92.10349322	      1.60750921	     21.31322976	    -17.88100583	      0.00000000	     93.81181017	     -8.94618901	      0.11695428	     94.46612176	      1.64874486	     25.23544441	    -10.51386551	      0.00000000	    -23.92906122	      7.63458473	     -2.10707434	     44.99992434	    -14.99999999	     44.99992434	     75.00017585	     45.00000026	      0.00000000	      0.00000000	     44.99992434	    -14.99999999	     44.99992434	     75.00017585	     45.00000026	      0.00000000	      0.00000000
      7.50000000	     -3.46661355	     28.22721882	    -88.08140078	      1.22330110	      0.63302465	      0.10861726	     92.80100052	     -9.91403378	     -4.63698651	     92.28374257	      1.61065515	     21.45141400	    -17.74344506	      0.00000000	     93.66672421	     -8.93379268	     -0.10579720	     94.56541362	      1.65047783	     25.35523213	    -10.45832299	      0.00000000	    -24.11061652	      7.40800542	     -2.06912213	     44.99992434	    -14.99999999	     44.99992434	     75.00017585	     45.00000026	      0.00000000	      0.00000000	     44.99992434	    -14.99999999	     44.99992434	     75.00017585	     45.00000026	      0.00000000	      0.00000000
      7.50500000	     -3.49479362	     28.23491064	    -87.97549634	      1.22360487	      0.63213095	      0.10857883	     92.91753397	    -10.05037221	     -4.63564494	     92.45767102	      1.61369078	     21.52218809	    -17.66306500	      0.00000000	     93.79901564	     -8.79537211	     -0.04944584	     94.71557036	      1.65309856	     25.36106125	    -10.59064280	      0.00000000	    -24.05097118	      7.57612244	     -2.06842180	     44.99992434	    -14.99999999	     44.99992434	     75.00017585	     45.00000026	      0.00000000	      0.00000000	     44.99992434	    -14.99999999	     44.99992434	     75.00017585	     45.00000026	      0.00000000	      0.00000000
      7.51000000	     -3.47330720	     28.17446703	    -88.04444747	      1.22340577	      0.63151829	      0.10865322	     92.95329781	     -9.96688348	     -4.57870222	     92.59613001	      1.61610734	     21.55696840	    -17.73840886	      0.00000000	     93.81290026	     -8.89030717	     -0.05466492	     94.86124528	      1.65564106	     25.45819120	    -10.42012344	      0.00000000	    -24.12538957	      7.47026171	     -2.13639353	     44.99992434	    -14.99999999	     44.99992434	     75.00017585	     45.00000026	      0.00000000	      0.00000000	     44.99992434	    -14.99999999	     44.99992434	     75.00017585	     45.00000026	      0.00000000	      0.00000000
